<svg width="19" height="20" viewBox="0 0 19 20" fill="none" xmlns="http://www.w3.org/2000/svg">
<path d="M9.25119 0.954102C4.21053 0.954102 0.109375 5.05526 0.109375 10.0959C0.109375 15.1366 4.21053 19.2377 9.25119 19.2377C14.2918 19.2377 18.393 15.1366 18.393 10.0959C18.393 5.05526 14.2918 0.954102 9.25119 0.954102ZM9.25119 2.36053C13.5317 2.36053 16.9866 5.81544 16.9866 10.0959C16.9866 14.3764 13.5317 17.8313 9.25119 17.8313C4.97071 17.8313 1.51581 14.3764 1.51581 10.0959C1.51581 5.81544 4.97071 2.36053 9.25119 2.36053ZM9.18508 5.87662C6.84759 5.87662 4.96579 7.75842 4.96579 10.0959C4.96579 12.4334 6.84759 14.3152 9.18508 14.3152C10.8728 14.3152 12.3144 13.3026 12.9867 11.8751L11.7124 11.2822C11.2589 12.2463 10.3102 12.9088 9.18508 12.9088C7.58456 12.9088 6.37222 11.6964 6.37222 10.0959C6.37222 8.49539 7.58456 7.28305 9.18508 7.28305C10.3102 7.28305 11.2596 7.94548 11.7124 8.90959L12.9874 8.31607C12.3151 6.88854 10.8728 5.87591 9.18508 5.87591V5.87662Z" fill="#394C5B"/>
</svg>
